<svg xmlns="http://www.w3.org/2000/svg" width="168" height="117.035" viewBox="0 0 168 117.035"><path fill="none" stroke="#183F4F" stroke-width="2.378" stroke-linecap="round" stroke-linejoin="round" stroke-miterlimit="10" d="M24.453 109.98c3.842-5.44 2.385-13.212-.49-18.738-2.443-4.7-3.29-7.157-.503-11.766 1.517-2.508 3.25-4.9 5.05-7.213l-10.305.028 11.587-4.338-13.326-1.676 16.346-6.04s-.674-14.083 4.994-20.215c5.146-5.567 7.917-13.538 6.793-21.16-1.203-8.155-7.46-14.43-15.455-16.372-1.6-.388-3.224-.574-4.838-.57h.292c-1.615-.004-3.24.182-4.84.57-7.995 1.942-14.25 8.218-15.453 16.37-1.124 7.624 1.647 15.596 6.793 21.163 5.668 6.133 4.994 20.215 4.994 20.215h7.4"/><path fill="none" stroke="#183F4F" stroke-width=".471" stroke-linecap="round" stroke-linejoin="round" stroke-miterlimit="10" d="M34.138 24.393c0-2.317-1.878-4.195-4.195-4.195-1.57 0-3.053.99-3.764 2.37-.394.765-.473 1.498-.345 2.204.34 1.877 3.153 1.61 3.15-.3 0-.665-.164-1.323-.46-1.916-.675-1.348-2.042-2.358-3.765-2.358h-.02c-1.535 0-3.025.954-3.754 2.29-.385.702-.484 1.395-.394 2.072.264 1.976 3.26 1.713 3.175-.28-.027-.646-.202-1.284-.502-1.855-.607-1.154-1.726-2.04-3.184-2.2-2.53-.28-4.67 1.694-4.67 4.168"/><path fill="#183F4F" d="M25.073 107.028c-2.578 0-4.672 2.246-4.715 5.035h9.43c-.042-2.79-2.137-5.035-4.715-5.035"/><path fill="#183F4F" d="M22.27 114.56c-.57 0-1.038-.468-1.038-1.038v-2.73c0-.57.468-1.04 1.04-1.04s1.038.47 1.038 1.04v2.73c0 .57-.47 1.04-1.04 1.04M27.842 114.632c-.57 0-1.04-.468-1.04-1.04v-2.728c0-.57.47-1.04 1.04-1.04.57 0 1.04.47 1.04 1.04v2.73c0 .57-.47 1.038-1.04 1.038"/><g fill="#3CB6AA"><path d="M66.353 26.05V2.458h3.36l7.526 11.936c1.714 2.765 3.114 5.25 4.2 7.666l.105-.035c-.28-3.15-.35-6.02-.35-9.696V2.457h2.87V26.05h-3.08l-7.49-11.97c-1.646-2.626-3.22-5.322-4.376-7.877l-.106.035c.175 2.975.21 5.81.21 9.73V26.05h-2.87zM101.563 14.99h-9.136v8.505h10.22v2.555h-13.3V2.458h12.777v2.555h-9.696v7.456h9.136v2.52zM110.452 26.05l-5.985-23.592h3.22l2.8 11.936c.7 2.94 1.33 5.88 1.75 8.156h.07c.386-2.345 1.12-5.146 1.926-8.19l3.15-11.902h3.186l2.87 11.97c.664 2.8 1.294 5.602 1.645 8.087h.07c.49-2.59 1.154-5.216 1.89-8.156l3.115-11.902h3.115L126.59 26.05h-3.187l-2.976-12.286c-.734-3.01-1.225-5.32-1.54-7.7h-.07c-.384 2.345-.944 4.655-1.82 7.7l-3.36 12.286h-3.185z"/></g><g fill="#3CB6AA"><path d="M70.833 35.043h-7.176v-2.59h17.467v2.59h-7.21v21.002h-3.08V35.043zM103.104 44.004c0 8.086-4.936 12.426-10.956 12.426-6.266 0-10.606-4.865-10.606-12.006 0-7.49 4.62-12.392 10.92-12.392 6.477 0 10.642 4.936 10.642 11.972zm-18.34.35c0 5.076 2.73 9.59 7.56 9.59s7.562-4.444 7.562-9.8c0-4.726-2.45-9.626-7.526-9.626s-7.597 4.69-7.597 9.836zM127.22 44.004c0 8.086-4.937 12.426-10.956 12.426-6.266 0-10.606-4.865-10.606-12.006 0-7.49 4.62-12.392 10.92-12.392 6.476 0 10.64 4.936 10.64 11.972zm-18.343.35c0 5.076 2.73 9.59 7.562 9.59 4.83 0 7.56-4.444 7.56-9.8 0-4.726-2.45-9.626-7.526-9.626-5.077 0-7.597 4.69-7.597 9.836zM131.137 32.453h3.08V53.49H144.3v2.556h-13.163V32.453zM146.572 52.335c1.364.875 3.324 1.54 5.425 1.54 3.115 0 4.936-1.646 4.936-4.025 0-2.17-1.26-3.466-4.445-4.656-3.85-1.4-6.23-3.43-6.23-6.72 0-3.675 3.045-6.406 7.63-6.406 2.38 0 4.166.56 5.182 1.155l-.84 2.485c-.736-.455-2.31-1.12-4.446-1.12-3.22 0-4.445 1.925-4.445 3.535 0 2.205 1.434 3.29 4.69 4.55 3.99 1.54 5.985 3.466 5.985 6.932 0 3.64-2.66 6.825-8.227 6.825-2.275 0-4.76-.7-6.02-1.54l.804-2.555z"/></g><g fill="#183F4F"><path d="M70.833 65.038h-7.176v-2.59h17.467v2.59h-7.21V86.04h-3.08V65.038zM103.104 74c0 8.085-4.936 12.425-10.956 12.425-6.266 0-10.606-4.865-10.606-12.006 0-7.492 4.62-12.393 10.92-12.393 6.477 0 10.642 4.936 10.642 11.972zm-18.34.35c0 5.075 2.73 9.59 7.56 9.59s7.562-4.445 7.562-9.8c0-4.727-2.45-9.627-7.526-9.627s-7.597 4.69-7.597 9.836zM118.957 65.038h-7.176v-2.59h17.468v2.59h-7.21V86.04h-3.08V65.038zM131.87 62.763c1.542-.28 3.782-.49 5.847-.49 3.256 0 5.39.63 6.826 1.926 1.155 1.05 1.855 2.66 1.855 4.514 0 3.08-1.96 5.146-4.41 5.986v.104c1.785.63 2.87 2.31 3.43 4.76.77 3.29 1.33 5.566 1.82 6.477h-3.15c-.385-.7-.91-2.694-1.54-5.635-.7-3.255-1.995-4.48-4.76-4.585h-2.87v10.22h-3.047V62.763zm3.047 10.746h3.115c3.255 0 5.32-1.786 5.32-4.48 0-3.046-2.205-4.377-5.425-4.377-1.47 0-2.486.105-3.01.245v8.61zM155.497 86.04V76.03l-7.49-13.583h3.5l3.325 6.51c.875 1.786 1.61 3.222 2.346 4.867h.07c.63-1.54 1.47-3.08 2.38-4.866l3.396-6.51h3.43l-7.875 13.546V86.04h-3.083z"/></g><g fill="#183F4F"><path d="M86.515 103.994c0 8.086-4.936 12.426-10.956 12.426-6.267 0-10.607-4.865-10.607-12.006 0-7.49 4.62-12.392 10.92-12.392 6.476 0 10.642 4.936 10.642 11.972zm-18.342.35c0 5.076 2.73 9.59 7.56 9.59 4.832 0 7.562-4.444 7.562-9.8 0-4.726-2.45-9.626-7.526-9.626-5.077 0-7.597 4.69-7.597 9.836zM93.513 92.442v14.002c0 5.25 2.345 7.49 5.495 7.49 3.466 0 5.74-2.31 5.74-7.49V92.442h3.08v13.792c0 7.245-3.814 10.186-8.925 10.186-4.83 0-8.47-2.73-8.47-10.08V92.44h3.08zM117.592 95.033h-7.176v-2.59h17.467v2.59h-7.21v21.002h-3.08V95.033z"/></g></svg>