<svg xmlns="http://www.w3.org/2000/svg" width="95.773" height="44.752" viewBox="0 0 95.773 44.752"><path fill="#FFF" d="M73.54 0c-4.388 0-8.655 1.268-12.455 3.434-3.696 2.105-6.917 4.96-9.786 8.08-1.14 1.238-2.225 2.52-3.27 3.837-1.012 1.27-1.98 2.575-2.934 3.888-.485.668-.967 1.338-1.45 2.01-.963 1.337-1.943 2.676-3.064 3.888-1.036 1.12-2.1 2.21-3.194 3.273-2.724 2.646-5.63 5.162-8.842 7.204-2.54 1.614-5.51 3.152-8.592 3.152-8.267 0-15.678-6.555-15.678-16.532 0-9.976 7.126-15.392 15.678-15.392 4.955 0 9.336 2.114 13.587 5.772l-2.274 2.34 5.564 1.406 5.563 1.406-1.564-5.52-1.565-5.522-2.49 2.56c-4.348-3.89-9.753-7.003-16.536-7.003C9.12 2.28 0 10.263 0 22.52c0 11.686 9.12 20.236 19.384 20.236 4.246 0 8.357-1.265 12.002-3.41 3.268-1.928 6.12-4.47 8.74-7.195.884-.918 1.743-1.86 2.596-2.808 1.105-1.23 2.143-2.448 3.07-3.843l1.22-1.84c.75-1.126 1.44-2.243 2.244-3.34 1.48-2.02 3.03-3.99 4.697-5.856 2.798-3.133 5.968-6.048 9.703-8.026 2.963-1.57 6.242-2.448 9.6-2.448 11.688 0 18.243 8.124 18.243 18.528 0 9.692-6.272 17.673-17.104 17.673-6.19 0-11.62-1.678-17.337-6.622l2.648-3.22-5.66-.942-5.66-.94 2.014 5.372 2.017 5.373 2.25-2.735c5.54 4.986 11.582 8.277 19.44 8.277 13.112 0 21.663-9.977 21.663-22.52C95.773 9.123 86.938 0 73.54 0"/></svg>